{"title":"Pixels [2015] (No Cinavia) &amp; BluRay Xtras 1080p","uid":12950853,"size":4918021733,"categoryP":"video","categoryS":"hd___movies","magnet":"?xt=urn:btih:59c3f8797a66f6bb6a6a57a69017f3a5c0e34bd0&amp;dn=Pixels+%5B2015%5D+%28No+Cinavia%29+%26amp%3B+BluRay+Xtras+1080p&amp;tr=udp%3A%2F%2Ftracker.leechers-paradise.org%3A6969&amp;tr=udp%3A%2F%2Fzer0day.ch%3A1337&amp;tr=udp%3A%2F%2Fopen.demonii.com%3A1337&amp;tr=udp%3A%2F%2Ftracker.coppersurfer.tk%3A6969&amp;tr=udp%3A%2F%2Fexodus.desync.com%3A6969","seeders":0,"leechers":2,"uploader":"AlienMethod","files":12,"time":1449725071,"description":"x264/mp4\r\n6-Channel    (audio 1)\r\n2-Channel    (audio 2)\r\nCinavia Removed (CinEx HD)\r\nEnglish Subs.\r\nBluRay Xtras Incl.\r\n\r\n&quot;When aliens misinterpret video feeds of classic arcade games as a declaration of war,\r\nthey attack the Earth in the form of the video games.&quot;\r\n\r\n\r\n\r\nGeneral\r\nComplete name: Pixels [2015] &amp; BluRay Xtras (NoCinavia) 1080p\r\nPixels [2015] (NoCinavia) 1080p.mp4\r\nFormat : MPEG-4\r\nFormat profile : Base Media\r\nCodec ID : isom\r\nFile size : 3.98 GiB\r\nDuration : 1h 45mn\r\nOverall bit rate mode : Variable\r\nOverall bit rate : 5 385 Kbps\r\nEncoded date : UTC 2015-12-09 14:36:58\r\nTagged date : UTC 2015-12-09 14:36:58\r\nWriting application : My MP4Box GUI 0.6.0.6 \r\n\r\nVideo\r\nID : 1\r\nFormat : AVC\r\nFormat/Info : Advanced Video Codec\r\nFormat profile :   \r\nFormat settings, CABAC : Yes\r\nFormat settings, ReFrames : 4 frames\r\nCodec ID : avc1\r\nCodec ID/Info : Advanced Video Coding\r\nDuration : 1h 45mn\r\nBit rate : 4 624 Kbps\r\nMaximum bit rate : 45.5 Mbps\r\nWidth : 1 920 pixels\r\nHeight : 800 pixels\r\nDisplay aspect ratio : 2.40:1\r\nFrame rate mode : Constant\r\nFrame rate : 23.976 fps\r\nColor space : YUV\r\nChroma subsampling : 4:2:0\r\nBit depth : 8 bits\r\nScan type : Progressive\r\nBits/(Pixel*Frame) : 0.126\r\nStream size : 3.42 GiB (86%)\r\nTitle : Pixels (Encode).h264\r\nWriting library : x264 core 142 r2479 dd79a61\r\nEncoded date : UTC 2015-12-09 14:36:58\r\nTagged date : UTC 2015-12-09 14:37:16\r\n\r\nAudio #1\r\nID : 2\r\nFormat : AC-3\r\nFormat/Info : Audio Coding 3\r\nMode extension : CM (complete main)\r\nFormat settings, Endianness : Big\r\nCodec ID : ac-3\r\nDuration : 1h 45mn\r\nBit rate mode : Constant\r\nBit rate : 640 Kbps\r\nChannel(s) : 6 channels\r\nChannel positions : Front: L C R, Side: L R, LFE\r\nSampling rate : 48.0 KHz\r\nBit depth : 16 bits\r\nCompression mode : Lossy\r\nStream size : 484 MiB (12%)\r\nTitle : Pixels (CinEx)_track2_und.ac3\r\nEncoded date : UTC 2015-12-09 14:37:13\r\nTagged date : UTC 2015-12-09 14:37:16\r\n\r\nAudio #2\r\nID : 3\r\nFormat : AAC\r\nFormat/Info : Advanced Audio Codec\r\nFormat profile : LC\r\nCodec ID : 40\r\nDuration : 1h 45mn\r\nBit rate mode : Variable\r\nBit rate : 119 Kbps\r\nMaximum bit rate : 162 Kbps\r\nChannel(s) : 2 channels\r\nChannel positions : Front: L R\r\nSampling rate : 48.0 KHz\r\nCompression mode : Lossy\r\nStream size : 89.9 MiB (2%)\r\nTitle : Pixels (CinEx)_track2_und_Output.m4a\r\nEncoded date : UTC 2015-12-09 14:37:15\r\nTagged date : UTC 2015-12-09 14:37:16","torrent":{"xt":"urn:btih:59c3f8797a66f6bb6a6a57a69017f3a5c0e34bd0","amp;dn":"Pixels+%5B2015%5D+%28No+Cinavia%29+%26amp%3B+BluRay+Xtras+1080p","amp;tr":["udp%3A%2F%2Ftracker.leechers-paradise.org%3A6969","udp%3A%2F%2Fzer0day.ch%3A1337","udp%3A%2F%2Fopen.demonii.com%3A1337","udp%3A%2F%2Ftracker.coppersurfer.tk%3A6969","udp%3A%2F%2Fexodus.desync.com%3A6969"],"infoHash":"59c3f8797a66f6bb6a6a57a69017f3a5c0e34bd0","infoHashBuffer":{"type":"Buffer","data":[89,195,248,121,122,102,246,187,106,106,87,166,144,23,243,165,192,227,75,208]},"announce":[],"urlList":[]}}